<?xml version="1.0" encoding="UTF-8" standalone="no"?>
<!-- Created with Inkscape (http://www.inkscape.org/) -->

<svg
   width="450"
   height="160"
   viewBox="0 0 450 160"
   version="1.1"
   id="svg1"
   xml:space="preserve"
   inkscape:version="1.4 (1:1.4+202410161351+e7c3feb100)"
   sodipodi:docname="logo-classic.svg"
   inkscape:export-filename="logo.png"
   inkscape:export-xdpi="480"
   inkscape:export-ydpi="480"
   xmlns:inkscape="http://www.inkscape.org/namespaces/inkscape"
   xmlns:sodipodi="http://sodipodi.sourceforge.net/DTD/sodipodi-0.dtd"
   xmlns="http://www.w3.org/2000/svg"
   xmlns:svg="http://www.w3.org/2000/svg"><sodipodi:namedview
     id="namedview1"
     pagecolor="#505050"
     bordercolor="#eeeeee"
     borderopacity="1"
     inkscape:showpageshadow="0"
     inkscape:pageopacity="0"
     inkscape:pagecheckerboard="0"
     inkscape:deskcolor="#505050"
     inkscape:document-units="px"
     showguides="true"
     showgrid="true"
     inkscape:zoom="0.99999996"
     inkscape:cx="230.50001"
     inkscape:cy="83.500004"
     inkscape:window-width="1862"
     inkscape:window-height="1011"
     inkscape:window-x="0"
     inkscape:window-y="0"
     inkscape:window-maximized="1"
     inkscape:current-layer="layer2"><inkscape:grid
       id="grid2"
       units="px"
       originx="-20"
       originy="-20"
       spacingx="1"
       spacingy="1"
       empcolor="#0099e5"
       empopacity="0.30196078"
       color="#0099e5"
       opacity="0.14901961"
       empspacing="10"
       dotted="false"
       gridanglex="30"
       gridanglez="30"
       visible="true" /><sodipodi:guide
       position="160,160"
       orientation="1,0"
       id="guide19"
       inkscape:locked="false" /></sodipodi:namedview><defs
     id="defs1"><inkscape:path-effect
       effect="bspline"
       id="path-effect26"
       is_visible="true"
       lpeversion="1.3"
       weight="33.333333"
       steps="2"
       helper_size="0"
       apply_no_weight="true"
       apply_with_weight="true"
       only_selected="false"
       uniform="false" /><inkscape:path-effect
       effect="powerstroke"
       id="path-effect16"
       is_visible="true"
       lpeversion="1.3"
       scale_width="1"
       interpolator_type="CubicBezierJohan"
       interpolator_beta="0.2"
       start_linecap_type="zerowidth"
       end_linecap_type="zerowidth"
       offset_points="0,10"
       linejoin_type="extrp_arc"
       miter_limit="4"
       not_jump="false"
       sort_points="true"
       message="" /><inkscape:path-effect
       effect="bspline"
       id="path-effect14"
       is_visible="true"
       lpeversion="1.3"
       weight="33.333333"
       steps="2"
       helper_size="0"
       apply_no_weight="true"
       apply_with_weight="true"
       only_selected="false"
       uniform="false" /><inkscape:path-effect
       effect="powerstroke"
       id="path-effect12"
       is_visible="true"
       lpeversion="1.3"
       scale_width="1"
       interpolator_type="CubicBezierJohan"
       interpolator_beta="0.2"
       start_linecap_type="zerowidth"
       end_linecap_type="zerowidth"
       offset_points="0,10"
       linejoin_type="extrp_arc"
       miter_limit="4"
       not_jump="false"
       sort_points="true"
       message="" /><inkscape:path-effect
       effect="bspline"
       id="path-effect10"
       is_visible="true"
       lpeversion="1.3"
       weight="33.333333"
       steps="2"
       helper_size="0"
       apply_no_weight="true"
       apply_with_weight="true"
       only_selected="false"
       uniform="false" /><inkscape:path-effect
       effect="powerstroke"
       id="path-effect8"
       is_visible="true"
       lpeversion="1.3"
       scale_width="1"
       interpolator_type="CubicBezierJohan"
       interpolator_beta="0.2"
       start_linecap_type="zerowidth"
       end_linecap_type="zerowidth"
       offset_points="0,10"
       linejoin_type="extrp_arc"
       miter_limit="4"
       not_jump="false"
       sort_points="true"
       message="" /><inkscape:path-effect
       effect="bspline"
       id="path-effect7"
       is_visible="true"
       lpeversion="1.3"
       weight="33.333333"
       steps="2"
       helper_size="0"
       apply_no_weight="true"
       apply_with_weight="true"
       only_selected="false"
       uniform="false" /><inkscape:path-effect
       effect="powerstroke"
       id="path-effect5"
       is_visible="true"
       lpeversion="1.3"
       scale_width="1"
       interpolator_type="CubicBezierJohan"
       interpolator_beta="0.2"
       start_linecap_type="zerowidth"
       end_linecap_type="zerowidth"
       offset_points="0,10"
       linejoin_type="extrp_arc"
       miter_limit="4"
       not_jump="false"
       sort_points="true"
       message="" /><inkscape:path-effect
       effect="bspline"
       id="path-effect4"
       is_visible="true"
       lpeversion="1.3"
       weight="33.333333"
       steps="2"
       helper_size="0"
       apply_no_weight="true"
       apply_with_weight="true"
       only_selected="false"
       uniform="false" /><inkscape:path-effect
       effect="bspline"
       id="path-effect3"
       is_visible="true"
       lpeversion="1.3"
       weight="33.333333"
       steps="2"
       helper_size="0"
       apply_no_weight="true"
       apply_with_weight="true"
       only_selected="false"
       uniform="false" /><inkscape:path-effect
       effect="fill_between_many"
       method="bsplinespiro"
       autoreverse="false"
       close="false"
       join="false"
       linkedpaths="#path3,0,1"
       id="path-effect6"
       is_visible="true"
       lpeversion="0" /></defs><g
     inkscape:label="logo"
     inkscape:groupmode="layer"
     id="layer1"
     transform="translate(-20,-20)"><circle
       style="fill:#c70139;fill-opacity:1;stroke:none;stroke-width:7.50003;stroke-dasharray:37.5, 37.5;stroke-opacity:1;paint-order:stroke fill markers"
       id="path2"
       cx="100"
       cy="100"
       r="15" /><path
       id="path6"
       style="fill:#c70139;fill-opacity:1;fill-rule:nonzero;stroke:none;stroke-width:5;stroke-dasharray:none;stroke-dashoffset:0;stroke-opacity:1;paint-order:stroke fill markers"
       d="m 110.93945,30.861328 c -4.533,2.014667 -13.72013,6.842654 -22.226559,13.175781 C 81.824965,49.165242 74.886587,55.590146 68.75,64.191406 c -5.343534,7.489688 -9.825846,16.330889 -13.722656,25.021485 0.613673,1.663895 1.279985,3.423653 1.976562,5.234375 0.01635,-0.02517 0.03248,-0.05102 0.04883,-0.07617 5.795084,-8.914619 12.233323,-17.3232 19.197266,-23.5625 6.846071,-6.133693 13.989919,-10.023883 20.662109,-12.970703 8.859029,-3.912653 17.017629,-6.418858 22.148439,-8.699219 L 115,40 Z"
       sodipodi:nodetypes="csscccssccc" /><path
       id="path17"
       style="fill:#c70139;fill-opacity:1;fill-rule:nonzero;stroke:none;stroke-width:5;stroke-dasharray:none;stroke-dashoffset:0;stroke-opacity:1;paint-order:stroke fill markers"
       d="m 30.861327,89.060549 c 2.014667,4.533 6.842654,13.720131 13.175781,22.226561 5.128133,6.88792 11.553037,13.8263 20.154297,19.96289 7.489688,5.34353 16.330889,9.82585 25.021485,13.72265 1.663895,-0.61367 3.423653,-1.27998 5.234375,-1.97656 -0.02517,-0.0164 -0.05102,-0.0325 -0.07617,-0.0488 C 85.456476,137.15218 77.047895,130.71394 70.808595,123.75 64.674902,116.90393 60.784712,109.76008 57.837892,103.08789 53.925239,94.228859 51.419034,86.070259 49.138673,80.939449 l -9.138674,4.06055 z"
       sodipodi:nodetypes="csscccssccc"
       inkscape:transform-center-x="37.345703"
       inkscape:transform-center-y="12.956049" /><path
       id="path18"
       style="fill:#c70139;fill-opacity:1;fill-rule:nonzero;stroke:none;stroke-width:5;stroke-dasharray:none;stroke-dashoffset:0;stroke-opacity:1;paint-order:stroke fill markers"
       d="m 89.060547,169.13867 c 4.533,-2.01466 13.720133,-6.84265 22.226563,-13.17578 6.88792,-5.12813 13.8263,-11.55304 19.96289,-20.1543 5.34353,-7.48968 9.82585,-16.33088 13.72265,-25.02148 -0.61367,-1.6639 -1.27998,-3.42365 -1.97656,-5.23438 -0.0164,0.0252 -0.0325,0.051 -0.0488,0.0762 -5.79511,8.91462 -12.23335,17.3232 -19.19729,23.5625 -6.84607,6.1337 -13.98992,10.02389 -20.66211,12.97071 -8.859032,3.91265 -17.017633,6.41886 -22.148443,8.69922 L 84.999998,160 Z"
       sodipodi:nodetypes="csscccssccc"
       inkscape:transform-center-x="-12.956049"
       inkscape:transform-center-y="37.345699" /><path
       id="path19"
       style="fill:#c70139;fill-opacity:1;fill-rule:nonzero;stroke:none;stroke-width:5;stroke-dasharray:none;stroke-dashoffset:0;stroke-opacity:1;paint-order:stroke fill markers"
       d="m 169.13867,110.93945 c -2.01466,-4.533 -6.84265,-13.72013 -13.17578,-22.22656 -5.12813,-6.88792 -11.55304,-13.8263 -20.1543,-19.96289 -7.48968,-5.34353 -16.33088,-9.82585 -25.02148,-13.72265 -1.6639,0.61367 -3.42365,1.27998 -5.23438,1.97656 0.0252,0.0164 0.051,0.0325 0.0762,0.0488 8.91462,5.79511 17.3232,12.23335 23.5625,19.19729 6.1337,6.84607 10.02389,13.98992 12.97071,20.66211 3.91265,8.85903 6.41886,17.01763 8.69922,22.14844 L 160,115 Z"
       sodipodi:nodetypes="csscccssccc"
       inkscape:transform-center-x="-37.345701"
       inkscape:transform-center-y="-12.956051" /></g><g
     inkscape:groupmode="layer"
     id="layer2"
     inkscape:label="texte"
     transform="translate(-20,-20)"><path
       d="m 216.51654,142.10005 c 2.16667,2.23334 4.96668,5.33334 6.36668,7.20001 l 3.90001,-3.1 c -1.3,-1.56667 -3.26667,-3.73334 -5.16668,-5.63335 4.70001,-3.80001 8.96669,-9.13335 11.36669,-13.03336 0.26667,-0.43333 0.66667,-0.86667 1.13334,-1.4 l -3.33334,-2.73334 c -0.7,0.23333 -1.83334,0.36667 -3.10001,0.36667 -3.6,0 -16.40003,0 -18.50004,0 -1.13333,0 -2.96667,-0.16667 -3.83334,-0.3 v 4.66667 c 0.70001,-0.0667 2.50001,-0.23333 3.83334,-0.23333 2.53334,0 14.70003,0 17.63337,0 -1.56667,2.73334 -4.70001,6.60001 -8.46668,9.60002 -2.1,-1.83334 -4.30001,-3.63334 -5.63334,-4.63334 l -3.53335,2.83334 c 2.00001,1.43333 5.40002,4.43334 7.33335,6.40001 z m 32.23338,-10.40002 v 5.23334 c 1.23334,-0.0667 3.46668,-0.16667 5.36668,-0.16667 3.90001,0 14.90003,0 17.90004,0 1.4,0 3.1,0.13334 3.9,0.16667 v -5.23334 c -0.86667,0.0667 -2.33334,0.2 -3.9,0.2 -3.00001,0 -13.9667,0 -17.90004,0 -1.73334,0 -4.16668,-0.1 -5.36668,-0.2 z M 303.98335,121.03334 298.81667,120 c -0.0667,1.03334 -0.3,2.33334 -0.7,3.43334 -0.4,1.26667 -1.03334,3.00001 -1.93334,4.53335 -1.26667,2.1 -3.40001,5.10001 -5.76668,6.86668 l 4.16668,2.53334 c 2,-1.73334 4.06667,-4.56668 5.40001,-7.00002 h 7.03335 c -0.53334,6.96668 -3.30001,11.06669 -6.80002,13.73336 -0.8,0.66667 -1.96667,1.36667 -3.16667,1.83334 l 4.50001,3.03334 c 6.03334,-3.80001 9.50002,-9.76669 10.10002,-18.60004 h 4.66667 c 0.76667,0 2.23334,0 3.46668,0.13334 v -4.56668 c -1.1,0.2 -2.60001,0.23333 -3.46668,0.23333 h -14.36669 l 0.93333,-2.43333 c 0.26667,-0.70001 0.70001,-1.86668 1.10001,-2.70001 z m 45.20006,6.30001 -3.96667,1.3 c 0.83333,1.73334 2.3,5.76668 2.7,7.40002 l 4.00001,-1.4 c -0.46667,-1.53334 -2.1,-5.86668 -2.73334,-7.30002 z m 12.30003,2.43334 -4.66668,-1.5 c -0.4,4.16667 -2,8.60001 -4.26667,11.43335 -2.76668,3.46668 -7.40002,6.00002 -11.06669,6.96668 l 3.50001,3.56668 c 3.9,-1.46667 8.06668,-4.26668 11.16668,-8.26668 2.26668,-2.93334 3.66668,-6.40002 4.53335,-9.76669 0.2,-0.66667 0.4,-1.36667 0.8,-2.43334 z m -20.03338,-0.66667 -4,1.43334 c 0.8,1.46667 2.46667,5.90001 3.03334,7.70001 l 4.06667,-1.53333 c -0.66667,-1.86667 -2.26667,-5.90001 -3.10001,-7.60002 z m 44.70008,14.83337 c 0,1.33333 -0.13334,3.33334 -0.33334,4.66667 h 5.20002 c -0.13334,-1.36667 -0.30001,-3.70001 -0.30001,-4.66667 v -9.43336 c 3.60001,1.23334 8.60002,3.16668 12.03336,4.96668 l 1.90001,-4.60001 c -3.06668,-1.5 -9.46669,-3.86667 -13.93337,-5.16668 v -4.93334 c 0,-1.36667 0.16667,-2.83334 0.30001,-4.00001 h -5.20002 c 0.23334,1.16667 0.33334,2.83334 0.33334,4.00001 0,2.83334 0,16.63337 0,19.16671 z"
       id="text2"
       style="-inkscape-font-specification:'Gotham Bold';stroke-width:0.5;stroke-linejoin:round"
       aria-label="マーケット"
       transform="translate(20,20)" /><path
       d="m 191.83909,70.854926 -13.94826,-2.699664 c -2.58718,5.399328 -5.06187,10.911142 -4.8369,18.110246 0.22497,16.085502 14.17324,22.722172 36.67044,22.722172 9.22385,0 19.46008,-0.7874 27.3341,-2.13723 l 0.7874,-14.285726 c -7.98651,1.574804 -17.54782,2.474692 -28.23399,2.474692 -14.84815,0 -22.72217,-3.37458 -22.72217,-11.698544 0,-4.836898 2.24972,-8.773908 4.94938,-12.485946 z m -21.59731,-26.096752 0.7874,13.273348 c 17.09788,1.012374 35.20812,1.012374 48.93141,0.112486 1.79978,3.824524 3.93701,7.761534 6.29922,11.698544 -3.37458,-0.337458 -9.44882,-0.899888 -14.17324,-1.349832 l -1.12486,10.68617 c 8.21148,0.899888 20.35997,2.362206 26.65919,3.599552 l 6.86164,-10.348712 c -2.02475,-1.912262 -3.59955,-3.599552 -5.06187,-5.736786 -2.02475,-2.924636 -3.93701,-6.411702 -5.84927,-10.011254 6.74916,-0.899888 12.8234,-2.137234 17.99776,-3.487066 l -2.24972,-13.273348 c -5.51181,1.462318 -12.26097,3.37458 -21.48483,4.49944 l -1.91226,-5.06187 -1.68729,-5.286842 c 7.42408,-1.012374 14.5107,-2.474692 20.69743,-4.161982 l -1.79978,-12.93589 c -7.1991,2.24972 -14.39821,3.824524 -22.15974,4.836898 C 220.18557,17.986506 219.51065,14.049496 218.94822,10 l -15.18561,1.68729 c 1.46232,3.93701 2.58718,7.536562 3.71204,11.136114 -10.34871,0.337458 -21.82229,-0.112486 -35.20812,-1.68729 l 0.7874,12.93589 c 14.17324,1.349832 27.3341,1.574804 37.90778,1.012374 l 2.24972,6.636674 1.46232,3.93701 c -12.48594,0.787402 -27.67155,0.674916 -44.43197,-0.899888 z m 177.27794,-1.349832 -14.73567,-1.68729 c 0.33746,3.487066 0.33746,7.87402 0,12.260974 l -0.33746,3.824524 c -7.31159,-3.149608 -15.63555,-5.849272 -24.40946,-7.199104 4.0495,-9.56131 8.32396,-19.347592 11.2486,-24.18449 0.89989,-1.574804 2.24972,-3.037122 3.82452,-4.724412 l -8.99888,-6.974132 c -1.91226,0.787402 -4.83689,1.462318 -7.64904,1.574804 -5.28685,0.449944 -17.21036,1.012374 -23.62206,1.012374 -2.4747,0 -6.29922,-0.224972 -9.33634,-0.56243 l 0.56243,14.510694 c 2.92463,-0.449944 6.86164,-0.787402 9.11136,-0.899888 5.17436,-0.337458 14.84816,-0.674916 19.3476,-0.899888 -2.58718,5.286842 -5.84928,12.93589 -8.99888,20.359966 -22.60969,1.012374 -38.47022,14.285722 -38.47022,31.721052 0,11.361086 7.42408,18.222732 17.32285,18.222732 7.64905,0 13.04837,-3.037122 17.54781,-9.898768 3.93701,-6.18673 8.66143,-17.43533 12.71092,-26.99664 9.6738,1.349832 18.67268,4.724412 26.65918,9.111366 -3.71203,10.236226 -11.58605,20.922396 -28.57144,28.233984 l 11.92352,9.78628 c 15.07312,-7.87402 23.62206,-17.772784 28.57144,-30.483702 3.48707,2.587178 6.74916,5.174356 9.6738,7.87402 l 6.52418,-15.635554 c -3.26209,-2.24972 -7.31159,-4.836898 -12.036,-7.536562 1.12486,-6.299216 1.68729,-13.273348 2.13724,-20.80991 z m -59.61758,19.347592 c -3.14961,7.086618 -6.18673,14.173236 -9.11137,18.335218 -2.02475,2.81215 -3.59955,3.93701 -5.84927,3.93701 -2.58718,0 -4.72441,-1.912262 -4.72441,-5.6243 0,-7.086618 7.08661,-14.735666 19.68505,-16.647928 z M 369.56697,20.12374 v 14.848152 c 9.11137,0.787402 18.89765,1.237346 30.70868,1.237346 10.68617,0 24.63443,-0.674916 32.50845,-1.349832 V 19.898768 c -8.66142,0.899888 -21.48482,1.574804 -32.62094,1.574804 -11.81103,0 -22.27223,-0.449944 -30.59619,-1.349832 z m 9.44882,47.694064 -14.73566,-1.349832 c -0.89989,4.161982 -2.24972,9.673796 -2.24972,16.197984 0,15.410582 12.93589,24.072004 38.69518,24.072004 15.74804,0 29.24636,-1.46232 39.03265,-3.82452 l -0.11249,-15.86053 c -9.89877,2.81215 -24.29698,4.49944 -39.48259,4.49944 -16.19798,0 -23.05963,-5.174356 -23.05963,-12.37346 0,-3.824524 0.7874,-7.31159 1.91226,-11.361086 z"
       id="text1"
       style="-inkscape-font-specification:'Gotham Bold';stroke-width:1.68729;stroke-linejoin:round"
       aria-label="きみこ"
       transform="translate(20,20)" /></g></svg>
