<?xml version="1.0" encoding="UTF-8" standalone="no"?>
<!-- Created with Inkscape (http://www.inkscape.org/) -->

<svg
   width="420"
   height="160"
   viewBox="0 0 420 160"
   version="1.1"
   id="svg1"
   xml:space="preserve"
   inkscape:version="1.4 (1:1.4+202410151212+e7c3feb100)"
   sodipodi:docname="logo-classic.svg"
   inkscape:export-filename="logo.png"
   inkscape:export-xdpi="480"
   inkscape:export-ydpi="480"
   xmlns:inkscape="http://www.inkscape.org/namespaces/inkscape"
   xmlns:sodipodi="http://sodipodi.sourceforge.net/DTD/sodipodi-0.dtd"
   xmlns="http://www.w3.org/2000/svg"
   xmlns:svg="http://www.w3.org/2000/svg"><sodipodi:namedview
     id="namedview1"
     pagecolor="#505050"
     bordercolor="#eeeeee"
     borderopacity="1"
     inkscape:showpageshadow="0"
     inkscape:pageopacity="0"
     inkscape:pagecheckerboard="0"
     inkscape:deskcolor="#505050"
     inkscape:document-units="px"
     showguides="true"
     showgrid="true"
     inkscape:zoom="11.313708"
     inkscape:cx="266.66765"
     inkscape:cy="138.94648"
     inkscape:window-width="1366"
     inkscape:window-height="768"
     inkscape:window-x="0"
     inkscape:window-y="0"
     inkscape:window-maximized="0"
     inkscape:current-layer="svg1"><inkscape:grid
       id="grid2"
       units="px"
       originx="-20"
       originy="-20"
       spacingx="1"
       spacingy="1"
       empcolor="#0099e5"
       empopacity="0.30196078"
       color="#0099e5"
       opacity="0.14901961"
       empspacing="10"
       dotted="false"
       gridanglex="30"
       gridanglez="30"
       visible="true" /><sodipodi:guide
       position="160,160"
       orientation="1,0"
       id="guide19"
       inkscape:locked="false" /></sodipodi:namedview><defs
     id="defs1"><inkscape:path-effect
       effect="bspline"
       id="path-effect26"
       is_visible="true"
       lpeversion="1.3"
       weight="33.333333"
       steps="2"
       helper_size="0"
       apply_no_weight="true"
       apply_with_weight="true"
       only_selected="false"
       uniform="false" /><inkscape:path-effect
       effect="powerstroke"
       id="path-effect16"
       is_visible="true"
       lpeversion="1.3"
       scale_width="1"
       interpolator_type="CubicBezierJohan"
       interpolator_beta="0.2"
       start_linecap_type="zerowidth"
       end_linecap_type="zerowidth"
       offset_points="0,10"
       linejoin_type="extrp_arc"
       miter_limit="4"
       not_jump="false"
       sort_points="true"
       message="" /><inkscape:path-effect
       effect="bspline"
       id="path-effect14"
       is_visible="true"
       lpeversion="1.3"
       weight="33.333333"
       steps="2"
       helper_size="0"
       apply_no_weight="true"
       apply_with_weight="true"
       only_selected="false"
       uniform="false" /><inkscape:path-effect
       effect="powerstroke"
       id="path-effect12"
       is_visible="true"
       lpeversion="1.3"
       scale_width="1"
       interpolator_type="CubicBezierJohan"
       interpolator_beta="0.2"
       start_linecap_type="zerowidth"
       end_linecap_type="zerowidth"
       offset_points="0,10"
       linejoin_type="extrp_arc"
       miter_limit="4"
       not_jump="false"
       sort_points="true"
       message="" /><inkscape:path-effect
       effect="bspline"
       id="path-effect10"
       is_visible="true"
       lpeversion="1.3"
       weight="33.333333"
       steps="2"
       helper_size="0"
       apply_no_weight="true"
       apply_with_weight="true"
       only_selected="false"
       uniform="false" /><inkscape:path-effect
       effect="powerstroke"
       id="path-effect8"
       is_visible="true"
       lpeversion="1.3"
       scale_width="1"
       interpolator_type="CubicBezierJohan"
       interpolator_beta="0.2"
       start_linecap_type="zerowidth"
       end_linecap_type="zerowidth"
       offset_points="0,10"
       linejoin_type="extrp_arc"
       miter_limit="4"
       not_jump="false"
       sort_points="true"
       message="" /><inkscape:path-effect
       effect="bspline"
       id="path-effect7"
       is_visible="true"
       lpeversion="1.3"
       weight="33.333333"
       steps="2"
       helper_size="0"
       apply_no_weight="true"
       apply_with_weight="true"
       only_selected="false"
       uniform="false" /><inkscape:path-effect
       effect="powerstroke"
       id="path-effect5"
       is_visible="true"
       lpeversion="1.3"
       scale_width="1"
       interpolator_type="CubicBezierJohan"
       interpolator_beta="0.2"
       start_linecap_type="zerowidth"
       end_linecap_type="zerowidth"
       offset_points="0,10"
       linejoin_type="extrp_arc"
       miter_limit="4"
       not_jump="false"
       sort_points="true"
       message="" /><inkscape:path-effect
       effect="bspline"
       id="path-effect4"
       is_visible="true"
       lpeversion="1.3"
       weight="33.333333"
       steps="2"
       helper_size="0"
       apply_no_weight="true"
       apply_with_weight="true"
       only_selected="false"
       uniform="false" /><inkscape:path-effect
       effect="bspline"
       id="path-effect3"
       is_visible="true"
       lpeversion="1.3"
       weight="33.333333"
       steps="2"
       helper_size="0"
       apply_no_weight="true"
       apply_with_weight="true"
       only_selected="false"
       uniform="false" /><inkscape:path-effect
       effect="fill_between_many"
       method="bsplinespiro"
       autoreverse="false"
       close="false"
       join="false"
       linkedpaths="#path3,0,1"
       id="path-effect6"
       is_visible="true"
       lpeversion="0" /></defs><g
     inkscape:label="logo"
     inkscape:groupmode="layer"
     id="layer1"
     transform="translate(-20,-20)"><circle
       style="fill:#c70139;fill-opacity:1;stroke:none;stroke-width:7.50003;stroke-dasharray:37.5, 37.5;stroke-opacity:1;paint-order:stroke fill markers"
       id="path2"
       cx="100"
       cy="100"
       r="15" /><path
       id="path6"
       style="fill:#c70139;fill-opacity:1;fill-rule:nonzero;stroke:none;stroke-width:5;stroke-dasharray:none;stroke-dashoffset:0;stroke-opacity:1;paint-order:stroke fill markers"
       d="m 110.93945,30.861328 c -4.533,2.014667 -13.72013,6.842654 -22.226559,13.175781 C 81.824965,49.165242 74.886587,55.590146 68.75,64.191406 c -5.343534,7.489688 -9.825846,16.330889 -13.722656,25.021485 0.613673,1.663895 1.279985,3.423653 1.976562,5.234375 0.01635,-0.02517 0.03248,-0.05102 0.04883,-0.07617 5.795084,-8.914619 12.233323,-17.3232 19.197266,-23.5625 6.846071,-6.133693 13.989919,-10.023883 20.662109,-12.970703 8.859029,-3.912653 17.017629,-6.418858 22.148439,-8.699219 L 115,40 Z"
       sodipodi:nodetypes="csscccssccc" /><path
       id="path17"
       style="fill:#c70139;fill-opacity:1;fill-rule:nonzero;stroke:none;stroke-width:5;stroke-dasharray:none;stroke-dashoffset:0;stroke-opacity:1;paint-order:stroke fill markers"
       d="m 30.861327,89.060549 c 2.014667,4.533 6.842654,13.720131 13.175781,22.226561 5.128133,6.88792 11.553037,13.8263 20.154297,19.96289 7.489688,5.34353 16.330889,9.82585 25.021485,13.72265 1.663895,-0.61367 3.423653,-1.27998 5.234375,-1.97656 -0.02517,-0.0164 -0.05102,-0.0325 -0.07617,-0.0488 C 85.456476,137.15218 77.047895,130.71394 70.808595,123.75 64.674902,116.90393 60.784712,109.76008 57.837892,103.08789 53.925239,94.228859 51.419034,86.070259 49.138673,80.939449 l -9.138674,4.06055 z"
       sodipodi:nodetypes="csscccssccc"
       inkscape:transform-center-x="37.345703"
       inkscape:transform-center-y="12.956049" /><path
       id="path18"
       style="fill:#c70139;fill-opacity:1;fill-rule:nonzero;stroke:none;stroke-width:5;stroke-dasharray:none;stroke-dashoffset:0;stroke-opacity:1;paint-order:stroke fill markers"
       d="m 89.060547,169.13867 c 4.533,-2.01466 13.720133,-6.84265 22.226563,-13.17578 6.88792,-5.12813 13.8263,-11.55304 19.96289,-20.1543 5.34353,-7.48968 9.82585,-16.33088 13.72265,-25.02148 -0.61367,-1.6639 -1.27998,-3.42365 -1.97656,-5.23438 -0.0164,0.0252 -0.0325,0.051 -0.0488,0.0762 -5.79511,8.91462 -12.23335,17.3232 -19.19729,23.5625 -6.84607,6.1337 -13.98992,10.02389 -20.66211,12.97071 -8.859032,3.91265 -17.017633,6.41886 -22.148443,8.69922 L 84.999998,160 Z"
       sodipodi:nodetypes="csscccssccc"
       inkscape:transform-center-x="-12.956049"
       inkscape:transform-center-y="37.345699" /><path
       id="path19"
       style="fill:#c70139;fill-opacity:1;fill-rule:nonzero;stroke:none;stroke-width:5;stroke-dasharray:none;stroke-dashoffset:0;stroke-opacity:1;paint-order:stroke fill markers"
       d="m 169.13867,110.93945 c -2.01466,-4.533 -6.84265,-13.72013 -13.17578,-22.22656 -5.12813,-6.88792 -11.55304,-13.8263 -20.1543,-19.96289 -7.48968,-5.34353 -16.33088,-9.82585 -25.02148,-13.72265 -1.6639,0.61367 -3.42365,1.27998 -5.23438,1.97656 0.0252,0.0164 0.051,0.0325 0.0762,0.0488 8.91462,5.79511 17.3232,12.23335 23.5625,19.19729 6.1337,6.84607 10.02389,13.98992 12.97071,20.66211 3.91265,8.85903 6.41886,17.01763 8.69922,22.14844 L 160,115 Z"
       sodipodi:nodetypes="csscccssccc"
       inkscape:transform-center-x="-37.345701"
       inkscape:transform-center-y="-12.956051" /></g><g
     inkscape:groupmode="layer"
     id="layer2"
     inkscape:label="texte"
     transform="translate(-20,-20)" /><g
     id="g1"
     transform="matrix(1.0307148,0,0,1.0298424,-8.0197816,-2.0950835)"
     style="stroke-width:0.970612"><path
       style="fill:none;fill-opacity:1;stroke:#000000;stroke-width:14.5591;stroke-dasharray:none;stroke-dashoffset:0;stroke-opacity:1;paint-order:stroke fill markers"
       d="m 215,13 10,57 c 0,0 -45,-5 -45,15 0,30 60,10 60,10"
       id="path20"
       sodipodi:nodetypes="ccsc" /><path
       style="fill:none;fill-opacity:1;stroke:#000000;stroke-width:14.5591;stroke-dasharray:none;stroke-dashoffset:0;stroke-opacity:1;paint-order:stroke fill markers"
       d="m 175,30 60,-5"
       id="path21"
       sodipodi:nodetypes="cc" /><path
       style="fill:none;fill-opacity:1;stroke:#000000;stroke-width:14.5591;stroke-dasharray:none;stroke-dashoffset:0;stroke-opacity:1;paint-order:stroke fill markers"
       d="m 175,50 65,-5"
       id="path22"
       sodipodi:nodetypes="cc" /></g><g
     id="g2"
     transform="matrix(0.98888721,0,0,1.0322475,0.74856944,-2.5422646)"
     style="stroke-width:0.989771"><path
       style="fill:none;fill-opacity:1;stroke:#000000;stroke-width:14.8465;stroke-dasharray:none;stroke-dashoffset:0;stroke-opacity:1;paint-order:stroke fill markers"
       d="M 260.53101,21.838042 298,20 c 0,0 5,91 -30,81 -19.82232,-5.663521 -10,-26 25,-26 20,0 40,10 40,10"
       id="path23"
       sodipodi:nodetypes="ccssc" /><path
       style="fill:none;fill-opacity:1;stroke:#000000;stroke-width:14.8465;stroke-dasharray:none;stroke-dashoffset:0;stroke-opacity:1;paint-order:stroke fill markers"
       d="m 323,50 c -4.24918,31.213752 -9.85975,36.050628 -15,50"
       id="path24"
       sodipodi:nodetypes="cc" /></g><g
     id="g3"
     transform="matrix(1,0,0,1.0379617,-1.5496303,-3.1628181)"
     style="stroke-width:0.981543"><path
       style="fill:none;fill-opacity:1;stroke:#000000;stroke-width:14.7231;stroke-dasharray:none;stroke-dashoffset:0;stroke-opacity:1;paint-order:stroke fill markers"
       d="m 345,25 65,-5 c 0,0 -35,5 -50,20"
       id="path25" /><path
       style="fill:none;fill-opacity:1;stroke:#000000;stroke-width:14.7231;stroke-dasharray:none;stroke-dashoffset:0;stroke-opacity:1;paint-order:stroke fill markers"
       d="m 355,55 c -5,18.333332 -9.9999,36.6663 -0.83305,43.3331 C 363.3338,104.9999 386.66667,99.999999 410,95"
       id="path26"
       inkscape:path-effect="#path-effect26"
       inkscape:original-d="m 355,55 c -5,18.333332 -9.9999,36.6663 -15,55 23.3338,-5.0001 46.66667,-10.000001 70,-15"
       sodipodi:nodetypes="ccc" /></g><path
     d="m 170,120 v 10 h 5 v -4 h 5 l 5,4 h 5 l -6.25,-5 6.25,-5 h -5 l -5,4 h -1 -4 v -4 z"
     style="stroke-width:15;paint-order:stroke fill markers"
     id="path31" /><path
     style="fill:#000000;fill-opacity:1;stroke:none;stroke-width:15;stroke-dasharray:none;stroke-dashoffset:0;stroke-opacity:1;paint-order:stroke fill markers"
     d="m 220,130 v -10 h 5 v 10 z"
     id="path32" /><path
     style="fill:#000000;fill-opacity:1;stroke:none;stroke-width:15;stroke-dasharray:none;stroke-dashoffset:0;stroke-opacity:1;paint-order:stroke fill markers"
     d="m 305,130 v -10 h 5 v 10 z"
     id="path35" /><path
     d="m 340,120 v 10 h 5 v -4 h 5 l 5,4 h 5 l -6.25,-5 6.25,-5 h -5 l -5,4 h -1 -4 v -4 z"
     style="stroke-width:15;paint-order:stroke fill markers"
     id="path36" /><path
     d="m 302,140 v 10 h 5 v -4 h 5 l 5,4 h 5 l -6.25,-5 6.25,-5 h -5 l -5,4 h -1 -4 v -4 z"
     style="stroke-width:15;paint-order:stroke fill markers"
     id="path37" /><path
     id="path39"
     style="fill:#000000;fill-opacity:1;stroke:none;stroke-width:15;stroke-dasharray:none;stroke-dashoffset:0;stroke-opacity:1;paint-order:stroke fill markers"
     d="m 400,120 a 10,5 0 0 0 -10,5 10,5 0 0 0 10,5 10,5 0 0 0 10,-5 10,5 0 0 0 -10,-5 z m 0,2 a 5,3 0 0 1 5,3 5,3 0 0 1 -5,3 5,3 0 0 1 -5,-3 5,3 0 0 1 5,-3 z" /><path
     d="m 224,140 c -5.52284,0 -10,2.23858 -10,5 v 5 h 5 V 149.33008 147 h 1.28906 7.42188 H 229 V 149.33008 150 h 5 v -5 c 0,-2.76142 -4.47716,-5 -10,-5 z m 0,2 c 2.76142,0 5,1.34315 5,3 h -10 c 0,-1.65685 2.23858,-3 5,-3 z"
     style="fill:#000000;stroke-width:15;paint-order:stroke fill markers"
     id="path43" /><path
     d="m 390,140 v 2 h 7.5 v 8 h 5 v -8 h 7.5 v -2 h -7.5 -5 z"
     style="stroke-width:15;paint-order:stroke fill markers"
     id="path46" /><path
     style="fill:#000000;fill-opacity:1;stroke:none;stroke-width:15;stroke-dasharray:none;stroke-dashoffset:0;stroke-opacity:1;paint-order:stroke fill markers"
     d="m 366,142 v -2 h -20 v 10 h 20 v -2 h -15 v -2 h 5 v -2 h -5 v -2 z"
     id="path47" /><path
     d="m 255,120 v 10 h 5 v -7.68945 l 3,1.73047 2,1.15625 2,-1.15625 3,-1.73047 V 130 h 5 v -10 h -5 l -5,2.88672 L 260,120 Z"
     style="fill:#000000;stroke-width:15;paint-order:stroke fill markers"
     id="path48" /><path
     d="m 170,140 v 10 h 5 v -7.68945 l 3,1.73047 2,1.15625 2,-1.15625 3,-1.73047 V 150 h 5 v -10 h -5 l -5,2.88672 L 175,140 Z"
     style="fill:#000000;stroke-width:15;paint-order:stroke fill markers"
     id="path49" /><path
     d="m 258,140 v 2 1.5 6.5 h 5 v -3 h 5 l 5,3 h 5 l -5.60547,-3.36328 C 275.81822,146.05049 277.99214,144.834 278,143.5 c 0,-1.93297 -4.47724,-3.5 -10,-3.5 h -5 z m 5,2 h 5 c 2.76138,0 5,0.67159 5,1.5 -0.005,0.6493 -1.40169,1.22397 -3.46094,1.42383 -0.49657,0.0494 -1.01592,0.0751 -1.53906,0.0762 h -5 v -1.5 z"
     style="fill:#000000;stroke-width:15;paint-order:stroke fill markers"
     id="path53" /></svg>
